<svg id="_6" data-name="6" xmlns="http://www.w3.org/2000/svg" viewBox="0 0 72 72"><path d="M133,76a7,7,0,0,1,7,7v50a7,7,0,0,1-7,7H83a7,7,0,0,1-7-7V83a7,7,0,0,1,7-7h50m0-4H83A11,11,0,0,0,72,83v50a11,11,0,0,0,11,11h50a11,11,0,0,0,11-11V83a11,11,0,0,0-11-11Z" transform="translate(-72 -72)"/><circle cx="18" cy="18" r="5.5"/><path d="M90,85a5,5,0,1,1-5,5,5,5,0,0,1,5-5m0-1a6,6,0,1,0,6,6,6,6,0,0,0-6-6Z" transform="translate(-72 -72)"/><circle cx="18" cy="36" r="5.5"/><path d="M90,103a5,5,0,1,1-5,5,5,5,0,0,1,5-5m0-1a6,6,0,1,0,6,6,6,6,0,0,0-6-6Z" transform="translate(-72 -72)"/><circle cx="18" cy="54" r="5.5"/><path d="M90,121a5,5,0,1,1-5,5,5,5,0,0,1,5-5m0-1a6,6,0,1,0,6,6,6,6,0,0,0-6-6Z" transform="translate(-72 -72)"/><circle cx="54" cy="54" r="5.5"/><path d="M126,121a5,5,0,1,1-5,5,5,5,0,0,1,5-5m0-1a6,6,0,1,0,6,6,6,6,0,0,0-6-6Z" transform="translate(-72 -72)"/><circle cx="54" cy="36" r="5.5"/><path d="M126,103a5,5,0,1,1-5,5,5,5,0,0,1,5-5m0-1a6,6,0,1,0,6,6,6,6,0,0,0-6-6Z" transform="translate(-72 -72)"/><circle cx="54" cy="18" r="5.5"/><path d="M126,85a5,5,0,1,1-5,5,5,5,0,0,1,5-5m0-1a6,6,0,1,0,6,6,6,6,0,0,0-6-6Z" transform="translate(-72 -72)"/></svg>