<svg id="LogoInverted" xmlns="http://www.w3.org/2000/svg" viewBox="0 0 69.27 41.3"><path class="cls-1" d="M70.6,41.84V42l0,.13-.06.09-.09.12-.09.06-.12.06-.13.07H57.82l-.12-.07-.13-.06-.09-.06-.12-.12,0-.09,0-.13V29.73l0-.12,0-.12.12-.1.09-.09.13-.06.12,0,.15,0H70l.12,0,.13,0,.12.06.09.09.09.1.06.12,0,.12V41.84Zm-5.31-6A1.31,1.31,0,0,0,64,34.53a1.34,1.34,0,0,0-1.36,1.32A1.37,1.37,0,0,0,64,37.2,1.34,1.34,0,0,0,65.29,35.85Z" transform="translate(-1.34 -1.21)"/><path class="cls-1" d="M56.62,41.84V42l0,.13-.09.09-.06.12-.13.06-.09.06-.12.07H43.84l-.13-.07-.15-.06-.06-.06-.09-.12-.06-.09,0-.13,0-.15v-12l0-.12,0-.12.06-.12.09-.1.06-.09.15-.06.13,0,.12,0H56l.15,0,.12,0,.09.06.13.09.06.1.09.12,0,.12V41.84Zm-2-9.28a1.31,1.31,0,0,0-1.32-1.32,1.32,1.32,0,1,0,0,2.64A1.31,1.31,0,0,0,54.59,32.56Zm-3.28,3.29A1.34,1.34,0,0,0,50,34.53a1.31,1.31,0,0,0-1.32,1.32A1.34,1.34,0,0,0,50,37.2,1.37,1.37,0,0,0,51.31,35.85ZM48,39.17a1.32,1.32,0,0,0-1.3-1.36,1.35,1.35,0,0,0-1.32,1.36,1.32,1.32,0,0,0,1.32,1.32A1.3,1.3,0,0,0,48,39.17Z" transform="translate(-1.34 -1.21)"/><path class="cls-1" d="M56.62,27.86V28l0,.12-.09.13-.06.09-.13.09-.09.06-.12,0-.15,0H44l-.12,0-.13,0-.15-.06-.06-.09-.09-.09-.06-.13,0-.12,0-.12v-12l0-.12,0-.12.06-.13.09-.09.06-.09.15-.06.13,0,.12,0H56l.15,0,.12,0,.09.06.13.09.06.09.09.13,0,.12V27.86Zm-2-9.62a1.31,1.31,0,0,0-1.32-1.32,1.33,1.33,0,0,0-1.35,1.32,1.36,1.36,0,0,0,1.35,1.35A1.33,1.33,0,0,0,54.59,18.24Zm0,3.62a1.31,1.31,0,0,0-1.32-1.32,1.33,1.33,0,1,0,0,2.65A1.31,1.31,0,0,0,54.59,21.86Zm0,3.63a1.33,1.33,0,0,0-1.32-1.35,1.36,1.36,0,0,0-1.35,1.35,1.33,1.33,0,0,0,1.35,1.32A1.31,1.31,0,0,0,54.59,25.49ZM48,18.24a1.29,1.29,0,0,0-1.3-1.32,1.31,1.31,0,0,0-1.32,1.32,1.34,1.34,0,0,0,1.32,1.35A1.32,1.32,0,0,0,48,18.24Zm0,3.62a1.3,1.3,0,0,0-1.3-1.32,1.33,1.33,0,0,0,0,2.65A1.3,1.3,0,0,0,48,21.86Zm0,3.63a1.32,1.32,0,0,0-1.3-1.35,1.34,1.34,0,0,0-1.32,1.35,1.31,1.31,0,0,0,1.32,1.32A1.29,1.29,0,0,0,48,25.49Z" transform="translate(-1.34 -1.21)"/><path class="cls-1" d="M42.64,29.85v12l-.06.15,0,.13,0,.09-.1.12-.09.06-.12.06-.15.07H29.85l-.12-.07-.12-.06-.09-.06-.1-.12-.06-.09L29.3,42V29.73l.06-.12.06-.12.1-.1.09-.09.12-.06.12,0,.13,0H42l.1,0,.15,0,.12.06.09.09.1.1,0,.12,0,.12Zm-2,2.71a1.33,1.33,0,0,0-1.35-1.32,1.32,1.32,0,0,0,0,2.64A1.33,1.33,0,0,0,40.61,32.56ZM34,39.17a1.34,1.34,0,0,0-1.32-1.36,1.37,1.37,0,0,0-1.35,1.36,1.34,1.34,0,0,0,1.35,1.32A1.31,1.31,0,0,0,34,39.17Z" transform="translate(-1.34 -1.21)"/><path class="cls-1" d="M42.64,15.87v12l-.06.12,0,.12,0,.13-.1.09-.09.09-.12.06-.15,0-.1,0H30l-.13,0-.12,0-.12-.06-.09-.09-.1-.09-.06-.13L29.3,28V15.75l.06-.12.06-.13.1-.09.09-.09.12-.06.12,0,.13,0H42l.1,0,.15,0,.12.06.09.09.1.09,0,.13,0,.12Zm-2,2.71a1.37,1.37,0,0,0-1.35-1.36,1.34,1.34,0,0,0-1.32,1.36,1.31,1.31,0,0,0,1.32,1.32A1.34,1.34,0,0,0,40.61,18.58Zm0,6.57a1.34,1.34,0,0,0-1.35-1.32,1.31,1.31,0,0,0-1.32,1.32,1.33,1.33,0,0,0,1.32,1.35A1.36,1.36,0,0,0,40.61,25.15Zm-3.32-3.29A1.33,1.33,0,0,0,36,20.54a1.33,1.33,0,0,0,0,2.65A1.33,1.33,0,0,0,37.29,21.86ZM34,18.58a1.34,1.34,0,0,0-1.32-1.36,1.37,1.37,0,0,0-1.35,1.36,1.34,1.34,0,0,0,1.35,1.32A1.31,1.31,0,0,0,34,18.58Zm0,6.57a1.31,1.31,0,0,0-1.32-1.32,1.34,1.34,0,0,0-1.35,1.32,1.36,1.36,0,0,0,1.35,1.35A1.33,1.33,0,0,0,34,25.15Z" transform="translate(-1.34 -1.21)"/><path class="cls-1" d="M42.64,1.89v12l-.06.13,0,.12,0,.12-.1.1-.09.09-.12.06-.15,0H29.85l-.12,0-.12-.06-.09-.09-.1-.1-.06-.12L29.3,14V1.74l.06-.13.06-.12.1-.09.09-.06.12-.1.12,0H42.06l.15,0,.12.1.09.06.1.09,0,.12,0,.13Zm-5.35,6A1.35,1.35,0,0,0,36,6.53a1.31,1.31,0,0,0-1.32,1.35A1.29,1.29,0,0,0,36,9.2,1.33,1.33,0,0,0,37.29,7.88Z" transform="translate(-1.34 -1.21)"/><path class="cls-1" d="M28.66,29.85v12l0,.15,0,.13-.06.09-.09.12-.12.06-.09.06-.13.07H15.84l-.12-.07-.09-.06-.16-.06,0-.12-.09-.09,0-.13V29.73l0-.12.09-.12,0-.1.16-.09.09-.06.12,0,.12,0H28l.12,0,.13,0,.09.06.12.09.09.1.06.12,0,.12Zm-2.06,2.4a1.33,1.33,0,1,0-2.65,0,1.33,1.33,0,0,0,2.65,0Zm0,3.6a1.33,1.33,0,0,0-2.65,0,1.33,1.33,0,1,0,2.65,0Zm0,3.62a1.33,1.33,0,1,0-1.32,1.32A1.32,1.32,0,0,0,26.6,39.47ZM20,32.25a1.36,1.36,0,0,0-1.35-1.35,1.33,1.33,0,0,0-1.32,1.35,1.31,1.31,0,0,0,1.32,1.32A1.33,1.33,0,0,0,20,32.25Zm0,3.6a1.33,1.33,0,0,0-1.35-1.32,1.31,1.31,0,0,0-1.32,1.32,1.34,1.34,0,0,0,1.32,1.35A1.36,1.36,0,0,0,20,35.85Zm0,3.62a1.34,1.34,0,0,0-1.35-1.32,1.32,1.32,0,0,0,0,2.64A1.33,1.33,0,0,0,20,39.47Z" transform="translate(-1.34 -1.21)"/><path class="cls-1" d="M14.64,41.84V42l0,.13-.09.09-.06.12-.09.06-.13.06-.12.07H1.86l-.12-.07-.13-.06-.09-.06-.09-.12-.06-.09,0-.13V29.73l0-.12.06-.12.09-.1.09-.09.13-.06.12,0,.12,0H14l.12,0,.12,0,.13.06.09.09.06.1.09.12,0,.12V41.84Zm-2-9.28a1.31,1.31,0,0,0-1.32-1.32,1.32,1.32,0,1,0,0,2.64A1.31,1.31,0,0,0,12.61,32.56ZM9.33,35.85a1.36,1.36,0,0,0-2.71,0,1.36,1.36,0,0,0,2.71,0ZM6,39.17a1.33,1.33,0,1,0-2.65,0,1.33,1.33,0,0,0,2.65,0Z" transform="translate(-1.34 -1.21)"/><path class="cls-1" d="M14.64,27.86V28l0,.12-.09.13-.06.09-.09.09-.13.06-.12,0-.12,0H2l-.12,0-.12,0-.13-.06-.09-.09-.09-.09-.06-.13,0-.12V15.75l0-.12.06-.13.09-.09.09-.09.13-.06.12,0,.12,0H14l.12,0,.12,0,.13.06.09.09.06.09.09.13,0,.12V27.86Zm-2-9.28a1.34,1.34,0,0,0-1.32-1.36,1.37,1.37,0,0,0-1.35,1.36,1.34,1.34,0,0,0,1.35,1.32A1.31,1.31,0,0,0,12.61,18.58ZM6,25.15A1.33,1.33,0,1,0,4.66,26.5,1.34,1.34,0,0,0,6,25.15Z" transform="translate(-1.34 -1.21)"/></svg>